<svg xmlns="http://www.w3.org/2000/svg" version="1.1" xmlns:xlink="http://www.w3.org/1999/xlink" xmlns:svgjs="http://svgjs.dev/svgjs" width="128" height="128" viewBox="0 0 128 128"><g transform="matrix(0.8046875,0,0,0.8046875,12.211347173012157,6.756153330592099)"><svg viewBox="0 0 85 95" data-background-color="#000000" preserveAspectRatio="xMidYMid meet" height="143" width="128" xmlns="http://www.w3.org/2000/svg" xmlns:xlink="http://www.w3.org/1999/xlink"><g id="tight-bounds" transform="matrix(1,0,0,1,0.2382086436307418,-0.24049999999999727)"><svg viewBox="0 0 84.52358271273852 95.481" height="95.481" width="84.52358271273852"><g><svg viewBox="0 0 84.52358271273852 95.481" height="95.481" width="84.52358271273852"><g><svg viewBox="0 0 84.52358271273852 95.481" height="95.481" width="84.52358271273852"><g id="textblocktransform"><svg viewBox="0 0 84.52358271273852 95.481" height="95.481" width="84.52358271273852" id="textblock"><g><svg viewBox="0 0 84.52358271273852 95.481" height="95.481" width="84.52358271273852"><g><svg viewBox="0 0 84.52358271273852 95.481" height="95.481" width="84.52358271273852"><g><svg xmlns="http://www.w3.org/2000/svg" xmlns:xlink="http://www.w3.org/1999/xlink" version="1.1" x="0" y="0" viewBox="6.891 1.122 85.824 96.95" enable-background="new 0 0 100 100" xml:space="preserve" height="95.481" width="84.52358271273852" class="icon-icon-0" data-fill-palette-color="accent" id="icon-0"><g fill="#ffdc00" data-fill-palette-color="accent"><path fill="#ffffff" d="M64.008 72.381C68.01 69.232 76.238 60.799 79.097 51.202 72.586 43.192 45.185 9.015 38.859 1.122 38.212 8.613 31.63 24.377 20.21 29.646 14.963 32.206 9.733 33.802 7.743 34.367L46.82 81.687C51.235 80.263 59.958 75.56 64.008 72.381" data-fill-palette-color="accent"></path><g fill="#ffdc00" data-fill-palette-color="accent"><g fill="#ffdc00" data-fill-palette-color="accent"><path fill="#ffffff" d="M90.405 75.352C83.905 79.133 77.024 82.633 69.731 85.281 61.099 88.415 50.681 91.962 47.345 92.945V98.072L90.391 82.593z" data-fill-palette-color="accent"></path><polygon fill="#ffffff" points="6.891,35.865 6.891,50.088 45.703,97.945 45.736,82.902    " data-fill-palette-color="accent"></polygon></g><path fill="#ffffff" d="M88.717 70.42C83.699 74.356 77.331 78.341 70.439 81.783 63.918 85.049 49.56 89.451 47.346 90.122V91.266C51.032 90.176 60.382 87.368 68.583 84.253 77.687 80.796 90.703 72.625 90.703 72.625z" data-fill-palette-color="accent"></path></g><path fill="#ffffff" d="M80.877 50.835L80.763 51.238C77.912 61.38 69.513 70.096 65.001 73.647 60.776 76.966 51.992 81.701 47.346 83.208V85.376C53.876 83.342 63.002 79.016 68.067 75.454 76.766 69.326 85.262 60.824 90.486 53.05L90.533 53.086C84.648 46.442 51.938 9.001 49.818 6.309 49.099 7.666 48.45 8.574 47.396 9.196 58.228 22.704 75.994 44.843 80.613 50.51z" data-fill-palette-color="accent"></path><path fill="#ffffff" d="M87.321 59.925S75.733 72.025 68.993 76.771C63.297 80.779 54.493 84.713 47.346 86.939V88.437C48.038 88.225 49.184 87.871 50.614 87.416 55.88 85.739 65.024 82.694 69.72 80.344 79.025 75.696 87.343 70.07 92.554 64.958L92.715 64.798z" data-fill-palette-color="accent"></path></g></svg></g></svg></g></svg></g></svg></g></svg></g></svg></g><defs></defs></svg><rect width="84.52358271273852" height="95.481" fill="none" stroke="none" visibility="hidden"></rect></g></svg></g></svg>