<svg xmlns="http://www.w3.org/2000/svg" version="1.1" xmlns:xlink="http://www.w3.org/1999/xlink" xmlns:svgjs="http://svgjs.dev/svgjs" width="2000" height="494" viewBox="0 0 2000 494"><g transform="matrix(1,0,0,1,-1.2121212121212466,-0.8715159792709812)"><svg viewBox="0 0 396 98" data-background-color="#000000" preserveAspectRatio="xMidYMid meet" height="494" width="2000" xmlns="http://www.w3.org/2000/svg" xmlns:xlink="http://www.w3.org/1999/xlink"><g id="tight-bounds" transform="matrix(1,0,0,1,0.2400000000000091,0.17289183394444763)"><svg viewBox="0 0 395.52 97.6542163321111" height="97.6542163321111" width="395.52"><g><svg viewBox="0 0 534.9014994765932 132.06762425732668" height="97.6542163321111" width="395.52"><g transform="matrix(1,0,0,1,139.38149947659326,18.443247439599716)"><svg viewBox="0 0 395.52 95.18112937812725" height="95.18112937812725" width="395.52"><g id="textblocktransform"><svg viewBox="0 0 395.52 95.18112937812725" height="95.18112937812725" width="395.52" id="textblock"><g><svg viewBox="0 0 395.52 95.18112937812725" height="95.18112937812725" width="395.52"><g transform="matrix(1,0,0,1,0,0)"><svg width="395.52" viewBox="0.65 -36.05 209.82999999999998 50.5" height="95.18112937812725" data-palette-color="#ffffff"><path d="M17.4-27.7L17.4-27.7 17.6-29.25Q17.6-31.55 15.8-32.2L15.8-32.2Q14.4-32.65 13.65-32.65L13.65-32.65 13.6-32.65Q12.1-32.65 11-32.18 9.9-31.7 9.4-31L9.4-31Q8.35-29.55 8.2-27.95L8.2-27.95Q8.2-26.05 9.9-24.68 11.6-23.3 14.03-22.28 16.45-21.25 18.88-20.05 21.3-18.85 23-16.6 24.7-14.35 24.7-11.2L24.7-11.2Q24.7-5.05 20.83-2 16.95 1.05 12.03 1.05 7.1 1.05 3.88-1.18 0.65-3.4 0.65-7.15L0.65-7.15 0.65-7.2Q0.65-9.05 1.23-10.43 1.8-11.8 2.6-12.45L2.6-12.45Q4.25-13.8 5.6-13.9L5.6-13.9 6.2-13.95Q7.6-13.95 8.75-13.28 9.9-12.6 9.9-11.4L9.9-11.4Q9.9-10.8 9.25-10.4 8.6-10 8.13-9.2 7.65-8.4 7.6-7.85L7.6-7.85 7.5-7.3Q7.5-4.25 10.3-3.25L10.3-3.25Q11.3-2.9 11.9-2.9L11.9-2.9Q14.65-2.9 16.32-4.55 18-6.2 18-8.75L18-8.75Q18-11.8 15.4-13.7L15.4-13.7Q13.45-15.1 11.18-16.05 8.9-17 8.1-17.4 7.3-17.8 6.4-18.35 5.5-18.9 4.4-19.9L4.4-19.9Q2-22 2-25.58 2-29.15 3.95-31.6L3.95-31.6Q7.45-36.05 14.45-36.05L14.45-36.05Q18.15-36.05 20.7-34.63 23.25-33.2 23.25-30.7L23.25-30.7Q23.25-28.9 22.23-27.7 21.2-26.5 19.6-26.5L19.6-26.5Q18.85-26.5 18.13-26.8 17.4-27.1 17.4-27.7ZM26.25-19.5L26.25-19.5 26.4-21.5Q26.45-21.95 27.1-21.95L27.1-21.95 28.85-21.95 28.65-25.95 28.65-26.15Q28.65-27.3 30.4-28.35 32.15-29.4 33.6-29.4L33.6-29.4Q34.05-29.4 34.05-29L34.05-29 34.05-28.95Q33.85-27.6 33.65-22L33.65-22Q35.85-22 36.45-22.1 37.05-22.2 37.1-22.2L37.1-22.2Q37.45-22.2 37.45-21.6 37.45-21 36.9-20.08 36.35-19.15 35.7-19.1L35.7-19.1 33.6-19.1Q33.55-17.4 33.55-13.38 33.55-9.35 33.62-6.75 33.7-4.15 33.8-2.83 33.9-1.5 34.02-0.7 34.15 0.1 34.22 0.45 34.3 0.8 34.3 0.9L34.3 0.9Q34.3 1.4 33.65 1.45L33.65 1.45Q31.7 1.45 29.77 0.9 27.85 0.35 27.85-1L27.85-1Q28.9-9.4 28.9-19.05L28.9-19.05Q27.55-19.05 26.85-18.95L26.85-18.95 26.8-18.95Q26.35-18.95 26.25-19.5ZM43.09-18.85L43.09-18.85Q41.8-18.8 41.22-18.78 40.65-18.75 40.65-19.05 40.65-19.35 40.95-19.65L40.95-19.65Q44.15-22.6 51.75-22.6L51.75-22.6Q54.34-22.6 55.84-22.15L55.84-22.15 56.34-22Q56.95-21.75 56.95-21.45L56.95-21.45Q56.95-21.2 56.59-21.05L56.59-21.05Q55.25-20.65 54-19.78 52.75-18.9 52.75-18.55L52.75-18.55 53.05-18.2Q54.64-17.3 55.52-15.35 56.4-13.4 56.5-11.9L56.5-11.9 56.59-10.35Q56.59-5.4 53.84-2.2 51.09 1 46.34 1L46.34 1Q43.95 1 42.2 0.15 40.45-0.7 39.62-1.78 38.8-2.85 38.3-4.2L38.3-4.2Q37.7-6.05 37.7-8.03 37.7-10 38.37-12 39.05-14 39.92-14.95 40.8-15.9 41.9-16.5L41.9-16.5Q43.3-17.25 44.15-17.25 45-17.25 45-16.9L45-16.9 44.7-16.4Q43.59-15.1 43.12-13 42.65-10.9 42.65-9.28 42.65-7.65 43.05-6.05 43.45-4.45 43.95-3.68 44.45-2.9 45.09-2.5L45.09-2.5Q46.05-1.9 47.09-1.9 48.15-1.9 49.15-2.73 50.15-3.55 50.59-4.9L50.59-4.9Q51.5-7.4 51.5-10.05L51.5-10.05Q51.5-14.25 49.37-16.55 47.25-18.85 43.09-18.85ZM74.19-17.2L73.94-13.4 74.14-11.65Q74.14-10.7 72.34-10.7L72.34-10.7Q68.69-10.7 68.69-13.45L68.69-13.45Q68.69-14.1 69.04-15.25 69.39-16.4 69.39-17.25 69.39-18.1 68.89-18.73 68.39-19.35 67.44-19.35 66.49-19.35 65.82-18.68 65.14-18 64.99-17.3L64.99-17.3 64.79-16.6Q64.49-15.05 64.49-11.43 64.49-7.8 64.59-5.73 64.69-3.65 64.79-2.88 64.89-2.1 64.89-1.95L64.89-1.95Q64.89-0.7 63.34 0.08 61.79 0.85 60.24 0.85 58.69 0.85 58.69 0.2L58.69 0.2 58.94-1.35Q59.64-5.7 59.64-12.7 59.64-19.7 59.14-22.2L59.14-22.2Q59.14-22.8 60.19-22.8L60.19-22.8Q62.89-22.8 63.79-20.95L63.79-20.95Q63.84-20.75 63.97-20.75 64.09-20.75 64.64-21.2L64.64-21.2Q66.29-22.55 68.54-22.55L68.54-22.55Q69.94-22.55 71.34-22L71.34-22Q74.19-20.85 74.19-17.2L74.19-17.2ZM85.29 13.85L85.29 13.85Q85.29 14.45 84.69 14.45L84.69 14.45 84.64 14.45Q82.99 14.45 80.91 13.3 78.84 12.15 78.84 10.65 78.84 9.15 80.74 5.43 82.64 1.7 82.64 0.45L82.64 0.45Q82.64-0.9 81.34-4.4L81.34-4.4Q79.69-8.95 78.72-11.8 77.74-14.65 76.61-16.82 75.49-19 74.99-19.4L74.99-19.4 74.49-19.75Q73.94-20.05 73.94-20.4L73.94-20.4Q73.94-21.1 76.11-21.83 78.29-22.55 79.94-22.55L79.94-22.55Q80.69-22.55 81.19-21.35L81.19-21.35Q82.09-19 83.14-14.85L83.14-14.85Q85.69-6.35 86.34-6.35L86.34-6.35Q86.79-6.35 88.16-9.85 89.54-13.35 89.54-15.5L89.54-15.5Q89.54-19.25 87.34-19.9L87.34-19.9Q86.84-20 86.84-20.4L86.84-20.4Q86.84-21.3 89.19-22.13 91.54-22.95 93.44-22.95L93.44-22.95Q95.09-22.95 95.09-20.8L95.09-20.8Q95.09-19.15 94.39-16.95 93.69-14.75 93.09-13.48 92.49-12.2 90.11-7.58 87.74-2.95 86.19 0.55L86.19 0.55Q84.49 4.75 84.49 9.1L84.49 9.1Q84.49 11.4 84.89 12.55 85.29 13.7 85.29 13.85ZM117.49-11.45L117.49-11.45Q118.44-11.45 118.44-9.05 118.44-6.65 117.54-4.75 116.64-2.85 115.36-1.8 114.09-0.75 112.49-0.1L112.49-0.1Q107.14 2.25 102.49-0.2L102.49-0.2Q100.14-1.45 98.89-3.18 97.64-4.9 96.89-7.3L96.89-7.3Q95.74-10.9 95.74-14.85 95.74-18.8 96.49-22.25 97.24-25.7 98.79-28.83 100.34-31.95 103.19-33.85 106.04-35.75 109.79-35.75L109.79-35.75Q111.39-35.75 113.11-35.23 114.84-34.7 115.94-33.93 117.04-33.15 117.89-31.55 118.74-29.95 118.74-27.8L118.74-27.8Q118.74-25.5 117.64-23.65L117.64-23.65Q117.14-22.8 116.04-22.13 114.94-21.45 113.44-21.45L113.44-21.45Q111.14-21.45 110.19-23.5L110.19-23.5Q109.79-24.3 109.79-25.25 109.79-26.2 110.44-26.35L110.44-26.35Q111.14-26.55 111.74-27.45 112.34-28.35 112.34-29.55L112.34-29.55Q112.34-30.5 111.84-31.2L111.84-31.2Q110.89-32.45 109.09-32.45 107.29-32.45 105.81-30.8 104.34-29.15 103.59-26.65L103.59-26.65Q102.09-21.65 102.09-17.45L102.09-17.45Q102.09-13.25 103.24-10.7L103.24-10.7Q104.64-7.55 106.79-6.5L106.79-6.5Q108.14-5.85 109.89-5.85L109.89-5.85Q112.84-5.85 115.19-8.5L115.19-8.5Q116.19-9.55 116.84-11L116.84-11Q117.09-11.45 117.49-11.45ZM137.88-15L137.88-15 137.78-8.6Q137.78-1.95 139.24-0.6L139.24-0.6Q139.44-0.4 139.44-0.15L139.44-0.15Q139.44 0.6 136.21 0.6 132.99 0.6 132.78-1.3L132.78-1.3Q132.74-1.75 132.74-3.15L132.74-3.15 132.94-11.15Q132.94-11.5 132.53-11.5L132.53-11.5Q130.13-11.5 128.03-10.15 125.94-8.8 125.94-6.7L125.94-6.7Q125.94-5.6 126.53-4.85 127.14-4.1 128.01-4.1 128.88-4.1 129.46-4.45 130.03-4.8 130.13-4.85L130.13-4.85Q130.99-4.75 130.99-3.08 130.99-1.4 129.44-0.38 127.89 0.65 126.19 0.65 124.48 0.65 123.26 0.05 122.03-0.55 121.48-1.3 120.94-2.05 120.59-3L120.59-3Q120.23-4.15 120.23-5L120.23-5Q120.23-8.5 122.44-10.6 124.64-12.7 128.09-13.6L128.09-13.6Q132.63-14.5 132.84-15.25L132.84-15.25Q132.99-15.8 132.99-17.1L132.99-17.1Q132.99-19.75 130.28-19.75L130.28-19.75Q129.13-19.75 128.24-19.03 127.34-18.3 127.34-17.2L127.34-17.2 127.64-16Q127.53-15.15 125.84-15L125.84-15 125.28-14.95Q123.78-14.95 122.91-15.7 122.03-16.45 122.03-17.7L122.03-17.7Q122.03-18.5 122.56-19.48 123.09-20.45 123.89-21.05 124.69-21.65 126.36-22.13 128.03-22.6 129.59-22.6 131.13-22.6 131.99-22.5 132.84-22.4 134.31-22.03 135.78-21.65 136.76-20.6 137.74-19.55 137.81-18.38 137.88-17.2 137.88-15ZM156.43-17.2L156.18-13.4 156.38-11.65Q156.38-10.7 154.58-10.7L154.58-10.7Q150.93-10.7 150.93-13.45L150.93-13.45Q150.93-14.1 151.28-15.25 151.63-16.4 151.63-17.25 151.63-18.1 151.13-18.73 150.63-19.35 149.68-19.35 148.73-19.35 148.06-18.68 147.38-18 147.23-17.3L147.23-17.3 147.03-16.6Q146.73-15.05 146.73-11.43 146.73-7.8 146.83-5.73 146.93-3.65 147.03-2.88 147.13-2.1 147.13-1.95L147.13-1.95Q147.13-0.7 145.58 0.08 144.03 0.85 142.48 0.85 140.93 0.85 140.93 0.2L140.93 0.2 141.18-1.35Q141.88-5.7 141.88-12.7 141.88-19.7 141.38-22.2L141.38-22.2Q141.38-22.8 142.43-22.8L142.43-22.8Q145.13-22.8 146.03-20.95L146.03-20.95Q146.08-20.75 146.21-20.75 146.33-20.75 146.88-21.2L146.88-21.2Q148.53-22.55 150.78-22.55L150.78-22.55Q152.18-22.55 153.58-22L153.58-22Q156.43-20.85 156.43-17.2L156.43-17.2ZM163.43-12.7L163.43-12.7 163.48-11.45Q163.48-11.15 163.88-11.15L163.88-11.15Q165.48-11.3 166.68-11.98 167.88-12.65 168.48-13.5L168.48-13.5Q169.68-15.35 169.78-16.7L169.78-16.7 169.83-17.3Q169.83-20 167.68-20L167.68-20Q166.08-20 165.08-18.6L165.08-18.6Q163.43-16.4 163.43-12.7ZM174.33-6.05L174.33-6.05Q174.33-4.15 173.56-2.73 172.78-1.3 171.81-0.63 170.83 0.05 169.53 0.45L169.53 0.45Q167.88 0.95 166.38 0.95L166.38 0.95Q162.18 0.95 160.18-2.2 158.18-5.35 158.18-10.23 158.18-15.1 160.66-18.9 163.13-22.7 168.08-22.7L168.08-22.7Q172.58-22.7 174.18-19.55L174.18-19.55Q174.83-18.35 174.83-17.28 174.83-16.2 174.73-15.58 174.63-14.95 174.03-13.7 173.43-12.45 172.43-11.45 171.43-10.45 169.28-9.55 167.13-8.65 164.23-8.35L164.23-8.35Q163.83-8.35 163.83-8L163.83-8Q163.83-7.55 164.16-6.68 164.48-5.8 164.88-5.2L164.88-5.2Q165.98-3.8 168.13-3.8L168.13-3.8Q170.28-3.8 171.78-5.2L171.78-5.2Q172.58-5.95 173.08-7.05L173.08-7.05Q173.28-7.45 173.61-7.45 173.93-7.45 174.13-6.9 174.33-6.35 174.33-6.05ZM181.83-12.7L181.83-12.7 181.88-11.45Q181.88-11.15 182.28-11.15L182.28-11.15Q183.88-11.3 185.08-11.98 186.28-12.65 186.88-13.5L186.88-13.5Q188.08-15.35 188.18-16.7L188.18-16.7 188.23-17.3Q188.23-20 186.08-20L186.08-20Q184.48-20 183.48-18.6L183.48-18.6Q181.83-16.4 181.83-12.7ZM192.73-6.05L192.73-6.05Q192.73-4.15 191.95-2.73 191.18-1.3 190.2-0.63 189.23 0.05 187.93 0.45L187.93 0.45Q186.28 0.95 184.78 0.95L184.78 0.95Q180.58 0.95 178.58-2.2 176.58-5.35 176.58-10.23 176.58-15.1 179.05-18.9 181.53-22.7 186.48-22.7L186.48-22.7Q190.98-22.7 192.58-19.55L192.58-19.55Q193.23-18.35 193.23-17.28 193.23-16.2 193.13-15.58 193.03-14.95 192.43-13.7 191.83-12.45 190.83-11.45 189.83-10.45 187.68-9.55 185.53-8.65 182.63-8.35L182.63-8.35Q182.23-8.35 182.23-8L182.23-8Q182.23-7.55 182.55-6.68 182.88-5.8 183.28-5.2L183.28-5.2Q184.38-3.8 186.53-3.8L186.53-3.8Q188.68-3.8 190.18-5.2L190.18-5.2Q190.98-5.95 191.48-7.05L191.48-7.05Q191.68-7.45 192-7.45 192.33-7.45 192.53-6.9 192.73-6.35 192.73-6.05ZM210.48-17.2L210.23-13.4 210.43-11.65Q210.43-10.7 208.63-10.7L208.63-10.7Q204.98-10.7 204.98-13.45L204.98-13.45Q204.98-14.1 205.33-15.25 205.68-16.4 205.68-17.25 205.68-18.1 205.18-18.73 204.68-19.35 203.73-19.35 202.78-19.35 202.1-18.68 201.43-18 201.28-17.3L201.28-17.3 201.08-16.6Q200.78-15.05 200.78-11.43 200.78-7.8 200.88-5.73 200.98-3.65 201.08-2.88 201.18-2.1 201.18-1.95L201.18-1.95Q201.18-0.7 199.63 0.08 198.08 0.85 196.53 0.85 194.98 0.85 194.98 0.2L194.98 0.2 195.23-1.35Q195.93-5.7 195.93-12.7 195.93-19.7 195.43-22.2L195.43-22.2Q195.43-22.8 196.48-22.8L196.48-22.8Q199.18-22.8 200.08-20.95L200.08-20.95Q200.13-20.75 200.25-20.75 200.38-20.75 200.93-21.2L200.93-21.2Q202.58-22.55 204.83-22.55L204.83-22.55Q206.23-22.55 207.63-22L207.63-22Q210.48-20.85 210.48-17.2L210.48-17.2Z" opacity="1" transform="matrix(1,0,0,1,0,0)" fill="#ffffff" class="wordmark-text-0" data-fill-palette-color="primary" id="text-0"></path></svg></g></svg></g></svg></g></svg></g><g><svg viewBox="0 0 116.9115191775225 132.06762425732668" height="132.06762425732668" width="116.9115191775225"><g><svg xmlns="http://www.w3.org/2000/svg" xmlns:xlink="http://www.w3.org/1999/xlink" version="1.1" x="0" y="0" viewBox="6.891 1.122 85.824 96.95" enable-background="new 0 0 100 100" xml:space="preserve" height="132.06762425732668" width="116.9115191775225" class="icon-icon-0" data-fill-palette-color="accent" id="icon-0"><g fill="#ffdc00" data-fill-palette-color="accent"><path fill="#ffdc00" d="M64.008 72.381C68.01 69.232 76.238 60.799 79.097 51.202 72.586 43.192 45.185 9.015 38.859 1.122 38.212 8.613 31.63 24.377 20.21 29.646 14.963 32.206 9.733 33.802 7.743 34.367L46.82 81.687C51.235 80.263 59.958 75.56 64.008 72.381" data-fill-palette-color="accent"></path><g fill="#ffdc00" data-fill-palette-color="accent"><g fill="#ffdc00" data-fill-palette-color="accent"><path fill="#ffdc00" d="M90.405 75.352C83.905 79.133 77.024 82.633 69.731 85.281 61.099 88.415 50.681 91.962 47.345 92.945V98.072L90.391 82.593z" data-fill-palette-color="accent"></path><polygon fill="#ffdc00" points="6.891,35.865 6.891,50.088 45.703,97.945 45.736,82.902    " data-fill-palette-color="accent"></polygon></g><path fill="#ffdc00" d="M88.717 70.42C83.699 74.356 77.331 78.341 70.439 81.783 63.918 85.049 49.56 89.451 47.346 90.122V91.266C51.032 90.176 60.382 87.368 68.583 84.253 77.687 80.796 90.703 72.625 90.703 72.625z" data-fill-palette-color="accent"></path></g><path fill="#ffdc00" d="M80.877 50.835L80.763 51.238C77.912 61.38 69.513 70.096 65.001 73.647 60.776 76.966 51.992 81.701 47.346 83.208V85.376C53.876 83.342 63.002 79.016 68.067 75.454 76.766 69.326 85.262 60.824 90.486 53.05L90.533 53.086C84.648 46.442 51.938 9.001 49.818 6.309 49.099 7.666 48.45 8.574 47.396 9.196 58.228 22.704 75.994 44.843 80.613 50.51z" data-fill-palette-color="accent"></path><path fill="#ffdc00" d="M87.321 59.925S75.733 72.025 68.993 76.771C63.297 80.779 54.493 84.713 47.346 86.939V88.437C48.038 88.225 49.184 87.871 50.614 87.416 55.88 85.739 65.024 82.694 69.72 80.344 79.025 75.696 87.343 70.07 92.554 64.958L92.715 64.798z" data-fill-palette-color="accent"></path></g></svg></g></svg></g></svg></g><defs></defs></svg><rect width="395.52" height="97.6542163321111" fill="none" stroke="none" visibility="hidden"></rect></g></svg></g></svg>