<svg xmlns="http://www.w3.org/2000/svg" viewBox="0 0 500 500"><g id="freepik--background-complete--inject-60"><rect x="402.07" y="376.37" width="35.16" height="11.19" transform="translate(839.3 763.94) rotate(180)" style="fill:#ebebeb"></rect><rect x="376.77" y="247.34" width="35.16" height="11.19" transform="translate(788.7 505.86) rotate(180)" style="fill:#ebebeb"></rect><path d="M421.68,401.67c5.84-.09,20.81-.34,26.45-.41l8.71,0-.46.45,0-11.19.5.5c-5.84,0-20.73-.07-26.37-.15l-8.79-.11.24-.24-.24,11.19Zm0,0-.23-11.19v-.23h.24c4.39-.06,13.2-.16,17.58-.2l17.58-.07h.5v.5l0,11.19v.46h-.45l-8.87,0c-5.6-.06-20.5-.32-26.29-.42Z" style="fill:#ebebeb"></path><path d="M227.52,128.87c5.84-.1,20.81-.35,26.45-.41l8.71-.05-.46.46,0-11.19.5.5c-5.84,0-20.73-.07-26.37-.15l-8.79-.11.24-.24-.24,11.19Zm0,0-.24-11.19v-.23h.24c4.39-.06,13.19-.16,17.58-.19l17.58-.07h.5v.5l-.05,11.19v.46h-.45l-8.87-.05c-5.6-.06-20.51-.31-26.29-.41Z" style="fill:#ebebeb"></path><path d="M247.13,143c5.84-.1,20.81-.35,26.45-.41l8.71,0-.46.46,0-11.19.5.5c-5.84,0-20.73-.07-26.37-.15l-8.79-.11.24-.24L247.13,143Zm0,0-.24-11.19v-.23h.24c4.39-.06,13.2-.16,17.58-.19l17.58-.07h.5v.5L282.74,143v.46h-.45l-8.87-.05c-5.6-.06-20.5-.31-26.29-.41Z" style="fill:#ebebeb"></path><rect x="266.67" y="117.68" width="35.16" height="11.19" transform="translate(568.49 246.55) rotate(180)" style="fill:#ebebeb"></rect><rect x="43.16" y="390.48" width="35.16" height="11.19" transform="translate(121.48 792.16) rotate(180)" style="fill:#ebebeb"></rect><rect x="62.77" y="44.93" width="35.16" height="11.19" transform="translate(160.7 101.06) rotate(180)" style="fill:#ebebeb"></rect><path d="M43.16,70.23c5.84-.1,20.81-.35,26.45-.41l8.71,0-.46.45,0-11.19.5.5c-5.84,0-20.73-.07-26.37-.15l-8.79-.11L43.4,59l-.24,11.19Zm0,0L42.92,59v-.23h.24c4.39-.06,13.19-.16,17.58-.2l17.58-.07h.5V59l0,11.19v.46h-.45l-8.87,0c-5.6-.07-20.51-.32-26.29-.42Z" style="fill:#ebebeb"></path><path d="M402.07,56.12c5.84-.1,20.81-.34,26.45-.41l8.71,0-.46.45,0-11.19.5.5-17.58-.07c-4.38,0-13.2-.13-17.58-.19l.24-.24-.24,11.19Zm0,0-.24-11.19V44.7h.24c4.39-.06,13.2-.16,17.58-.2l17.58-.07h.5v.5l-.05,11.19v.46h-.45l-8.87,0c-5.6-.07-20.5-.32-26.29-.42Z" style="fill:#ebebeb"></path><path d="M60.27,43.15v195H187v-195ZM182.33,233.46H65V47.83H182.33Z" style="fill:#ebebeb"></path><rect x="64.95" y="47.83" width="117.38" height="185.63" style="fill:#fff"></rect><rect x="64.94" y="138.3" width="117.38" height="4.68" transform="translate(247.27 281.28) rotate(180)" style="fill:#ebebeb"></rect><rect x="51.66" y="238.13" width="143.95" height="13.42" transform="translate(247.27 489.68) rotate(180)" style="fill:#dbdbdb"></rect><path d="M64.94,47.83H182.32V167.92H64.94ZM178,52.16H69.27V163.59H178Z" style="fill:#dbdbdb"></path><rect x="142.52" y="47.83" width="2.34" height="115.77" style="fill:#dbdbdb"></rect><rect x="102.41" y="47.83" width="2.34" height="115.77" style="fill:#dbdbdb"></rect></g><g id="freepik--Floor--inject-60"><polygon points="41.45 454.96 93.59 454.72 145.73 454.63 250 454.46 354.27 454.63 406.41 454.71 458.55 454.96 406.41 455.2 354.27 455.29 250 455.46 145.73 455.29 93.59 455.2 41.45 454.96" style="fill:#263238"></polygon></g><g id="freepik--Lamp--inject-60"><polygon points="395.79 458.85 328.63 458.85 340.51 448.62 383.9 448.62 395.79 458.85" style="fill:#dbdbdb"></polygon><rect x="358.77" y="123.93" width="6.87" height="324.69" style="fill:#dbdbdb"></rect><polygon points="365.64 123.93 365.64 148.34 358.77 150.99 358.77 123.93 365.64 123.93" style="fill:#c7c7c7"></polygon><polygon points="404.6 144.1 319.81 144.1 325.97 123.85 326.2 123.13 344.12 64.22 380.29 64.22 398.23 123.15 398.23 123.16 398.43 123.83 404.6 144.1" style="fill:#FFC727"></polygon><path d="M347.12,77.83a.56.56,0,0,1-.57.57.57.57,0,0,1-.57-.57.58.58,0,0,1,.57-.57A.57.57,0,0,1,347.12,77.83Zm9.87-.57a.58.58,0,0,0-.57.57.57.57,0,0,0,.57.57.56.56,0,0,0,.57-.57A.57.57,0,0,0,357,77.26Zm10.44,0a.58.58,0,0,0-.57.57.57.57,0,0,0,.57.57.56.56,0,0,0,.57-.57A.57.57,0,0,0,367.43,77.26Zm10.44,0a.58.58,0,0,0-.57.57.57.57,0,0,0,.57.57.56.56,0,0,0,.57-.57A.57.57,0,0,0,377.87,77.26ZM351.77,70a.58.58,0,0,0-.57.57.57.57,0,0,0,.57.57.56.56,0,0,0,.57-.57A.57.57,0,0,0,351.77,70Zm10.44,0a.58.58,0,0,0-.57.57.57.57,0,0,0,.57.57.56.56,0,0,0,.57-.57A.57.57,0,0,0,362.21,70Zm10.44,0a.58.58,0,0,0-.57.57.57.57,0,0,0,.57.57.56.56,0,0,0,.57-.57A.57.57,0,0,0,372.65,70ZM336.11,92.44a.58.58,0,0,0-.57.57.57.57,0,0,0,.57.57.56.56,0,0,0,.57-.57A.57.57,0,0,0,336.11,92.44Zm10.44,0A.58.58,0,0,0,346,93a.57.57,0,0,0,.57.57.56.56,0,0,0,.57-.57A.57.57,0,0,0,346.55,92.44Zm10.44,0a.58.58,0,0,0-.57.57.57.57,0,0,0,.57.57.56.56,0,0,0,.57-.57A.57.57,0,0,0,357,92.44Zm10.44,0a.58.58,0,0,0-.57.57.57.57,0,0,0,.57.57A.56.56,0,0,0,368,93,.57.57,0,0,0,367.43,92.44Zm10.44,0a.58.58,0,0,0-.57.57.57.57,0,0,0,.57.57.56.56,0,0,0,.57-.57A.57.57,0,0,0,377.87,92.44Zm10.44,0a.58.58,0,0,0-.57.57.57.57,0,0,0,.57.57.56.56,0,0,0,.57-.57A.57.57,0,0,0,388.31,92.44Zm-47-7.31a.58.58,0,0,0-.57.57.57.57,0,0,0,.57.57.56.56,0,0,0,.57-.57A.57.57,0,0,0,341.33,85.13Zm10.44,0a.58.58,0,0,0-.57.57.57.57,0,0,0,.57.57.56.56,0,0,0,.57-.57A.57.57,0,0,0,351.77,85.13Zm10.44,0a.58.58,0,0,0-.57.57.57.57,0,0,0,.57.57.56.56,0,0,0,.57-.57A.57.57,0,0,0,362.21,85.13Zm10.44,0a.58.58,0,0,0-.57.57.57.57,0,0,0,.57.57.56.56,0,0,0,.57-.57A.57.57,0,0,0,372.65,85.13Zm10.44,0a.58.58,0,0,0-.57.57.57.57,0,0,0,.57.57.56.56,0,0,0,.57-.57A.57.57,0,0,0,383.09,85.13Zm-47,22.49a.58.58,0,0,0-.57.57.57.57,0,0,0,.57.57.56.56,0,0,0,.57-.57A.57.57,0,0,0,336.11,107.62Zm10.44,0a.58.58,0,0,0-.57.57.57.57,0,0,0,.57.57.56.56,0,0,0,.57-.57A.57.57,0,0,0,346.55,107.62Zm10.44,0a.58.58,0,0,0-.57.57.57.57,0,0,0,.57.57.56.56,0,0,0,.57-.57A.57.57,0,0,0,357,107.62Zm10.44,0a.58.58,0,0,0-.57.57.57.57,0,0,0,.57.57.56.56,0,0,0,.57-.57A.57.57,0,0,0,367.43,107.62Zm10.44,0a.58.58,0,0,0-.57.57.57.57,0,0,0,.57.57.56.56,0,0,0,.57-.57A.57.57,0,0,0,377.87,107.62Zm10.44,0a.58.58,0,0,0-.57.57.57.57,0,0,0,.57.57.56.56,0,0,0,.57-.57A.57.57,0,0,0,388.31,107.62Zm-47-7.31a.58.58,0,0,0-.57.57.57.57,0,0,0,.57.57.56.56,0,0,0,.57-.57A.57.57,0,0,0,341.33,100.31Zm10.44,0a.58.58,0,0,0-.57.57.57.57,0,0,0,.57.57.56.56,0,0,0,.57-.57A.57.57,0,0,0,351.77,100.31Zm10.44,0a.58.58,0,0,0-.57.57.57.57,0,0,0,.57.57.56.56,0,0,0,.57-.57A.57.57,0,0,0,362.21,100.31Zm10.44,0a.58.58,0,0,0-.57.57.57.57,0,0,0,.57.57.56.56,0,0,0,.57-.57A.57.57,0,0,0,372.65,100.31Zm10.44,0a.58.58,0,0,0-.57.57.57.57,0,0,0,.57.57.56.56,0,0,0,.57-.57A.57.57,0,0,0,383.09,100.31ZM326.2,123.13l-.23.72a.54.54,0,0,0,.28-.48A.52.52,0,0,0,326.2,123.13Zm9.91-.32a.57.57,0,0,0-.57.57.58.58,0,0,0,.57.57.57.57,0,0,0,.57-.57A.56.56,0,0,0,336.11,122.81Zm10.44,0a.57.57,0,0,0-.57.57.58.58,0,0,0,.57.57.57.57,0,0,0,.57-.57A.56.56,0,0,0,346.55,122.81Zm10.44,0a.57.57,0,0,0-.57.57.58.58,0,0,0,.57.57.57.57,0,0,0,.57-.57A.56.56,0,0,0,357,122.81Zm10.44,0a.57.57,0,0,0-.57.57.58.58,0,0,0,.57.57.57.57,0,0,0,.57-.57A.56.56,0,0,0,367.43,122.81Zm10.44,0a.57.57,0,0,0-.57.57.58.58,0,0,0,.57.57.57.57,0,0,0,.57-.57A.56.56,0,0,0,377.87,122.81Zm10.44,0a.57.57,0,0,0-.57.57.58.58,0,0,0,.57.57.57.57,0,0,0,.57-.57A.56.56,0,0,0,388.31,122.81Zm9.92.35a.49.49,0,0,0,0,.21.52.52,0,0,0,.24.46Zm-67.34-7.67a.58.58,0,0,0-.57.57.57.57,0,0,0,.57.57.56.56,0,0,0,.57-.57A.57.57,0,0,0,330.89,115.49Zm10.44,0a.58.58,0,0,0-.57.57.57.57,0,0,0,.57.57.56.56,0,0,0,.57-.57A.57.57,0,0,0,341.33,115.49Zm10.44,0a.58.58,0,0,0-.57.57.57.57,0,0,0,.57.57.56.56,0,0,0,.57-.57A.57.57,0,0,0,351.77,115.49Zm10.44,0a.58.58,0,0,0-.57.57.57.57,0,0,0,.57.57.56.56,0,0,0,.57-.57A.57.57,0,0,0,362.21,115.49Zm10.44,0a.58.58,0,0,0-.57.57.57.57,0,0,0,.57.57.56.56,0,0,0,.57-.57A.57.57,0,0,0,372.65,115.49Zm10.44,0a.58.58,0,0,0-.57.57.57.57,0,0,0,.57.57.56.56,0,0,0,.57-.57A.57.57,0,0,0,383.09,115.49Zm10.44,0a.58.58,0,0,0-.57.57.57.57,0,0,0,.57.57.56.56,0,0,0,.57-.57A.57.57,0,0,0,393.53,115.49ZM325.67,138a.57.57,0,0,0-.57.57.58.58,0,0,0,.57.57.57.57,0,0,0,.57-.57A.56.56,0,0,0,325.67,138Zm10.44,0a.57.57,0,0,0-.57.57.58.58,0,0,0,.57.57.57.57,0,0,0,.57-.57A.56.56,0,0,0,336.11,138Zm10.44,0a.57.57,0,0,0-.57.57.58.58,0,0,0,.57.57.57.57,0,0,0,.57-.57A.56.56,0,0,0,346.55,138ZM357,138a.57.57,0,0,0-.57.57.58.58,0,0,0,.57.57.57.57,0,0,0,.57-.57A.56.56,0,0,0,357,138Zm10.44,0a.57.57,0,0,0-.57.57.58.58,0,0,0,.57.57.57.57,0,0,0,.57-.57A.56.56,0,0,0,367.43,138Zm10.44,0a.57.57,0,0,0-.57.57.58.58,0,0,0,.57.57.57.57,0,0,0,.57-.57A.56.56,0,0,0,377.87,138Zm10.44,0a.57.57,0,0,0-.57.57.58.58,0,0,0,.57.57.57.57,0,0,0,.57-.57A.56.56,0,0,0,388.31,138Zm10.44,0a.57.57,0,0,0-.57.57.58.58,0,0,0,.57.57.57.57,0,0,0,.57-.57A.56.56,0,0,0,398.75,138Zm-67.86-7.31a.57.57,0,0,0-.57.57.58.58,0,0,0,.57.57.57.57,0,0,0,.57-.57A.56.56,0,0,0,330.89,130.68Zm10.44,0a.57.57,0,0,0-.57.57.58.58,0,0,0,.57.57.57.57,0,0,0,.57-.57A.56.56,0,0,0,341.33,130.68Zm10.44,0a.57.57,0,0,0-.57.57.58.58,0,0,0,.57.57.57.57,0,0,0,.57-.57A.56.56,0,0,0,351.77,130.68Zm10.44,0a.57.57,0,0,0-.57.57.58.58,0,0,0,.57.57.57.57,0,0,0,.57-.57A.56.56,0,0,0,362.21,130.68Zm10.44,0a.57.57,0,0,0-.57.57.58.58,0,0,0,.57.57.57.57,0,0,0,.57-.57A.56.56,0,0,0,372.65,130.68Zm10.44,0a.57.57,0,0,0-.57.57.58.58,0,0,0,.57.57.57.57,0,0,0,.57-.57A.56.56,0,0,0,383.09,130.68Zm10.44,0a.57.57,0,0,0-.57.57.58.58,0,0,0,.57.57.57.57,0,0,0,.57-.57A.56.56,0,0,0,393.53,130.68Z" style="fill:#fff"></path></g><g id="freepik--Character--inject-60"><polygon points="202.3 356.41 125.94 454.96 130.25 454.96 218.43 356.41 202.3 356.41" style="fill:#c7c7c7"></polygon><polygon points="209.47 356.41 171.74 454.96 176.04 454.96 222.29 356.41 209.47 356.41" style="fill:#c7c7c7"></polygon><polygon points="227.97 356.41 265.7 454.96 261.4 454.96 215.15 356.41 227.97 356.41" style="fill:#c7c7c7"></polygon><polygon points="234.56 356.41 310.91 454.96 306.61 454.96 218.43 356.41 234.56 356.41" style="fill:#c7c7c7"></polygon><polygon points="362 337.95 362 312.34 257.14 308.04 201.76 167.77 74.86 167.77 116.84 330.59 227.03 368.07 233.75 368.07 362 337.95" style="fill:#455a64"></polygon><polygon points="74.86 167.77 89.38 167.77 133.24 315.54 231.06 344.62 362 312.34 362 337.95 233.75 368.07 227.03 368.07 116.84 330.59 74.86 167.77" style="fill:#37474f"></polygon><path d="M423.14,465.65c-3.24.88-96.47-5.19-99.79-7.63-.4-.25.7-31.17.7-31.17.15-.43-13.79-41.84-13.79-41.84l57.22-5.24,16.82,52.7s12.27,6,22.92,11.92c0,0,0,0,0,0,6.57,3.61,12.26,6.9,13.56,8.05C424.12,455.51,426.38,464.81,423.14,465.65Z" style="fill:#eb9481"></path><path d="M423.5,466c-3.33.87-96.67-5.44-100.08-7.93-1.29-.94-1.72-15.42.64-31.25L384.22,431s33.5,18.34,36.94,21.47S426.84,465.16,423.5,466Z" style="fill:#FFC727"></path><path d="M323.43,458.1c1.24.9,14.46,2.32,30.91,3.72L325.53,427h0l-1.47-.09C321.7,442.68,322.13,457.16,323.43,458.1Z" style="opacity:0.1"></path><path d="M422.42,462.21c-15.62-1.44-78.76-5.79-94.31-6-.13,0-.13.09,0,.1,15.45,1.77,78.62,5.6,94.3,6.19C422.73,462.48,422.75,462.24,422.42,462.21Z" style="fill:#263238"></path><path d="M415.38,448.7a12.55,12.55,0,0,0-9.61,3.18A12.23,12.23,0,0,0,401.7,460c0,.09.17.11.19,0a14.56,14.56,0,0,1,13.48-11.12A.1.1,0,1,0,415.38,448.7Z" style="fill:#263238"></path><path d="M389,432.89c-6.26-.51-13.67,1.21-17.91,6.07-.16.19.11.42.3.34a86.68,86.68,0,0,1,17.66-5.63A.4.4,0,0,0,389,432.89Z" style="fill:#263238"></path><path d="M393.73,435.1c-6.25-.51-13.66,1.21-17.9,6.07-.17.19.1.42.3.34a86.48,86.48,0,0,1,17.66-5.63A.4.4,0,0,0,393.73,435.1Z" style="fill:#263238"></path><path d="M398.44,437.32c-6.26-.51-13.67,1.2-17.9,6.06-.17.19.1.42.29.34a86.57,86.57,0,0,1,17.67-5.63A.39.39,0,0,0,398.44,437.32Z" style="fill:#263238"></path><path d="M403.15,439.53c-6.26-.51-13.67,1.21-17.91,6.07-.16.18.11.41.3.33a86.65,86.65,0,0,1,17.66-5.62A.4.4,0,0,0,403.15,439.53Z" style="fill:#263238"></path><path d="M333.1,441.59c-7-.45-7.75,10.47-.71,10.92S340.14,442.05,333.1,441.59Z" style="fill:#263238"></path><path d="M396.92,416.64c-3-2.84-7.16-.54-9.29,2.05a33,33,0,0,0-6.78,15.63.17.17,0,0,0,.19.19.77.77,0,0,0,1.09.59c4.66-2.79,10-5.18,13.67-9.31C398,423.37,399.75,419.33,396.92,416.64Zm-8.58,12.79c-2.26,1.42-4.58,2.73-6.79,4.24a97.11,97.11,0,0,1,4.16-9,35.75,35.75,0,0,1,2.57-4.07c1.5-2,8-6.8,8.16.06C396.53,424.4,391,427.73,388.34,429.43Z" style="fill:#263238"></path><path d="M365.14,435.59c5.39,1.21,11.12,0,16.54-.43a.76.76,0,0,0,.54-1.11.17.17,0,0,0,0-.27,33,33,0,0,0-14.63-8.72c-3.25-.86-8-.29-8.75,3.76C358.16,432.66,362,434.89,365.14,435.59Zm-3.54-3.82c-3.88-5.66,4.21-5.55,6.59-4.82a35.84,35.84,0,0,1,4.46,1.8c3,1.41,5.8,3.22,8.66,4.91-2.68.07-5.32.36-8,.53C370.14,434.39,363.73,434.89,361.6,431.77Z" style="fill:#263238"></path><path d="M383.53,426.71l-62.95-2.38s-27.31-94-33.79-98.31c-7.82-5.2-89.52,2.43-114.36-18-14.24-11.72-16.79-34.92-16.79-34.92L200.89,252s8.5,7.22,11.16,8.25c9.9,3.85,93.56-4.46,117.38,13.63C355.31,293.54,383.53,426.71,383.53,426.71Z" style="fill:#263238"></path><path d="M383.53,426.71l-62.95-2.38s-27.31-94-33.79-98.31c-7.82-5.2-89.52,2.43-114.36-18-14.24-11.72-16.79-34.92-16.79-34.92L200.89,252s8.5,7.22,11.16,8.25c9.9,3.85,93.56-4.46,117.38,13.63C355.31,293.54,383.53,426.71,383.53,426.71Z" style="fill:#263238"></path><path d="M377.79,414.87c-10.66-.6-7.59-.57-18.26-1.06-5.22-.24-31.46-1.5-36.37-.91a.11.11,0,0,0,0,.21c4.85.94,31.11,1.64,36.34,1.78,10.67.29,7.61.1,18.29.28A.15.15,0,0,0,377.79,414.87Z" style="fill:#37474f"></path><path d="M166.92,276.43c4.79,11.32,11.57,22.89,22.45,29.22a25.32,25.32,0,0,0,7,2.33c24.74,4.33,50,4,75.11,5.53,6.29.41,12.64.68,18.91,1.68a10.15,10.15,0,0,1,3.53,1.1,13,13,0,0,1,2.76,3.7c5.28,10.11,8.93,20.92,12.73,31.63q9.84,28.56,18.17,57.62c-6.37-19.1-12.73-38.2-19.61-57.11-3.52-9.41-6.91-18.91-11.17-27.94-1.13-2.17-2.23-4.75-4-6.39-2-.87-4.29-.94-6.44-1.24-5-.51-10-.78-15-1.05-17.77-1-42.84-1.86-60.3-3.89-7.45-1.08-15.38-1.52-22.22-5-10.91-6.59-17.53-18.6-21.9-30.2Z" style="fill:#37474f"></path><path d="M292.19,263.35,217,321.26c-18.22-1.94-35.29-5.67-44.52-13.26-14.24-11.72-16.8-34.92-16.8-34.92L200.89,252s8.49,7.22,11.15,8.25C218.75,262.88,259.32,259.9,292.19,263.35Z" style="fill:#37474f"></path><path d="M185.61,181.39c15.09,24.67,38.52,52.45,45.68,55.83,9.06,4.28,54.91-.57,57.27-1.05,3.86-.79-.29-41.72-3.77-40.56-9.19,3.06-38.58,8.95-41.24,7.58S221,188.83,200,173.77C185.46,163.35,176.25,166.08,185.61,181.39Z" style="fill:#eb9481"></path><path d="M281,194l.85,48.89s-41.4,1.87-50.8-3.27-35-39.32-45-56.71-.41-20.08,12.18-11.23,43.7,30.12,45.11,30.33S281,194,281,194Z" style="fill:#FFC727"></path><path d="M271.6,224.42c-.05-5.78-.06-11.56-.33-17.34-.15-3.28-.29-6.57-.47-9.85,0-.12-.22-.13-.23,0-.17,5.8-.33,11.62-.24,17.43s.13,11.57.3,17.35c.09,3.28.29,6.55.58,9.83a.06.06,0,0,0,.12,0C271.7,236,271.66,230.24,271.6,224.42Z" style="fill:#263238"></path><path d="M275.82,243.05c-11.83.29-37.65.45-44.82-3.47-9.4-5.14-35-39.32-45-56.7-4.8-8.35-5.09-13.32-2.69-15.24a8,8,0,0,1,1,.21C204.36,182.85,247.8,220,275.82,243.05Z" style="opacity:0.1"></path><polygon points="303.37 189.61 275.07 168.97 250.55 225.71 278.89 243.14 303.37 189.61" style="fill:#455a64"></polygon><polygon points="303.37 189.61 275.07 168.97 250.55 225.71 278.89 243.14 303.37 189.61" style="opacity:0.1"></polygon><path d="M299.68,189.33l-24.07-17.28-1.14,1.76L255,219.44a57.23,57.23,0,0,1,5.61,6.84c2.13,3.24,8.25,13.64,15.9,14.52Z" style="fill:#fff"></path><path d="M298.4,192.27s-6.48-3.22-9.66-6.57-6.23-7-8.86-8.7-5.28-3.39-5.28-3.39l1-1.56,24.07,17.28Z" style="fill:#ebebeb"></path><polygon points="236.34 243.42 281.69 244.59 303.37 189.61 256.18 184.94 236.34 243.42" style="fill:#455a64"></polygon><path d="M301.6,196.6c1.85,5.2,7.16,12,7.23,16.07a4.71,4.71,0,0,1-3.11,4.68s3.84,2.43,3.29,6.17c-.28,1.92-3.59,3.16-3.59,3.16s3,2.08,2.3,5.37c-.56,2.62-3.8,3.47-3.8,3.47s1.94,3.34.52,5.83c-2.87,5.05-25.75,2.72-28.43-6.07-1.25-4.1,4.31-3.23,4.31-3.23s-7.69-3.18-7.33-7.91,7.52-3.16,7.52-3.16-7.43-3.15-6.56-8c.9-5.06,7.79-2.27,7.79-2.27s-4.74-4-3.22-7.54c2.51-5.9,11.36,2.74,16.51,2.06l3.62-8Z" style="fill:#eb9481"></path><path d="M305.45,204.28c-1.32-5.08,5.36-10.51,4.79-15.55-.76-6.81-8.93-1-11.59,8.47l-.76,7.75Z" style="fill:#eb9481"></path><path d="M303.43,235.73a.06.06,0,0,1,0,.12A39.83,39.83,0,0,1,280,232c-.23-.12-.13-.54.15-.45A81.85,81.85,0,0,0,303.43,235.73Z" style="fill:#263238"></path><path d="M305.52,226.74c.09,0,.09.15,0,.16-7.95,1.06-17.83-.56-25.3-5.74-.25-.18-.3-.6,0-.41C285.44,223.82,298.09,226.62,305.52,226.74Z" style="fill:#263238"></path><path d="M281.31,210.14c7.36,4.7,15.48,6.56,24.09,7.27.11,0,.09.17,0,.19-4.31.8-9.75-.23-13.92-1.39a23,23,0,0,1-10.32-5.81C281,210.29,281.16,210,281.31,210.14Z" style="fill:#263238"></path><path d="M137.38,273.9c.22.23,85-18.34,85.8-19.33,1.1-1.39-14.05-65.15-30-84.17-4-4.76-16.73-4.43-22.43.37C142.48,194.57,136.58,273.08,137.38,273.9Z" style="fill:#FFC727"></path><path d="M163.86,176.88C140.4,201.07,115,249,120.58,259.22c6.28,11.34,39-22.56,38.8-24.52-.11-1.48,7.33-29.5,15.94-51.86S169.66,170.9,163.86,176.88Z" style="fill:#f7a9a0"></path><path d="M159.6,234.73c1-3.28,12.52-41.09,16.93-53.91,3.95-11.51,1.78-16.2-7.69-9-17.45,13.24-44.71,52.25-51,73.05-6,20.05,7.28,20.22,20.79,10.89C149.7,248.11,159.6,234.73,159.6,234.73Z" style="fill:#FFC727"></path><path d="M157.54,240.41q6.39-23.47,14.76-46.36-6.36,23.49-14.76,46.36Z" style="fill:#263238"></path><path d="M169.61,203.07a24.41,24.41,0,0,1,3.16-5.55,16.4,16.4,0,0,1-3.16,5.55Z" style="fill:#263238"></path><path d="M172.68,171.2c.74,1,1.51,2,2.29,2.93s1.59,1.88,2.41,2.8c1.64,1.83,3.33,3.61,5.09,5.31s3.56,3.34,5.44,4.88,3.82,3,5.8,4.4l-.67.15a2.3,2.3,0,0,0,.17-.35c.06-.13.11-.28.16-.42.1-.3.2-.59.29-.9.18-.6.33-1.22.48-1.85.29-1.24.54-2.51.77-3.78s.43-2.54.65-3.82l.59-3.84c0,1.29-.11,2.59-.2,3.89s-.22,2.59-.37,3.88-.35,2.58-.6,3.87c-.13.64-.27,1.28-.44,1.92-.08.32-.18.64-.28,1a4.59,4.59,0,0,1-.17.48,2.44,2.44,0,0,1-.1.24,1.45,1.45,0,0,1-.14.28l-.25.45-.42-.29c-2-1.41-4-2.83-5.89-4.44-1-.78-1.86-1.61-2.78-2.44-.46-.41-.89-.86-1.34-1.28s-.88-.87-1.31-1.31a70.6,70.6,0,0,1-4.91-5.59A54.53,54.53,0,0,1,172.68,171.2Z" style="fill:#263238"></path><path d="M189.06,184.17c-3.87-.25-11.09-8.34-13.55-14.76-.16-.44,1.05-4.67,2.29-9.88.73-3.16,1.48-6.71,1.92-10l19.9,7.8a52.61,52.61,0,0,0-3.7,12.33,7,7,0,0,0,0,1.36,1.76,1.76,0,0,0,0,.23C195.94,173.87,195.13,184.56,189.06,184.17Z" style="fill:#eb9481"></path><path d="M195.87,171a1.62,1.62,0,0,1,0,.23,12.78,12.78,0,0,1-2.14-.18c-11.66-1.85-12.58-16.5-12.58-21l18.47,7.23a53.25,53.25,0,0,0-3.72,12.33A8.94,8.94,0,0,0,195.87,171Z" style="fill:#263238"></path><path d="M183.77,123.88c-4.17,6.47-6.22,28-2.48,34,5.43,8.69,17.21,12.71,25.32,5.52,7.86-7,10-35.06,5.59-40.81C205.64,114.12,189.93,114.32,183.77,123.88Z" style="fill:#eb9481"></path><path d="M197.08,139.47a17.71,17.71,0,0,0,1.92-.26,3.19,3.19,0,0,0,1.9-.63,1,1,0,0,0,.09-1.21,2.48,2.48,0,0,0-2.39-.76,3.66,3.66,0,0,0-2.36,1.11A1.06,1.06,0,0,0,197.08,139.47Z" style="fill:#a6a6a6"></path><path d="M211.79,141.57a18.57,18.57,0,0,1-1.79-.72,3.05,3.05,0,0,1-1.69-1.08,1,1,0,0,1,.21-1.19,2.44,2.44,0,0,1,2.49-.15,3.6,3.6,0,0,1,2,1.65A1.06,1.06,0,0,1,211.79,141.57Z" style="fill:#a6a6a6"></path><path d="M196.09,156.5c.3.38.59.89,1.11,1a3.81,3.81,0,0,0,1.6-.16.05.05,0,0,1,0,.08,2,2,0,0,1-1.93.55,1.55,1.55,0,0,1-1-1.42C195.93,156.46,196,156.45,196.09,156.5Z" style="fill:#263238"></path><path d="M198.16,152.37a5,5,0,0,0,3,2.61,6.49,6.49,0,0,0,1.76.3,1.38,1.38,0,0,0,.35,0h.32a.36.36,0,0,0,.33-.29h0a.71.71,0,0,0,0-.15h0v-.13c.17-1.1.28-2.81.28-2.81.38.26,2.33,1.45,2.38.87.32-4.85.68-10.24,0-15.13a.14.14,0,0,0-.27,0c-.49,4.65-.17,9.35-.59,14a9.1,9.1,0,0,0-2.24-1c-.16,0-.15,3.3-.26,3.79l0,.06c-1.9,0-3.24-.75-4.89-2.23C198.21,152.16,198.09,152.24,198.16,152.37Z" style="fill:#263238"></path><path d="M200,143.52c0-.06-.12,0-.13.11-.18,1.43-.63,3.05-2,3.31,0,0,0,.08,0,.09C199.52,147.05,200.1,144.91,200,143.52Z" style="fill:#263238"></path><path d="M199,141.82c-2.27-.54-3.18,4-1.08,4.54S200.9,142.27,199,141.82Z" style="fill:#263238"></path><path d="M208.4,144.61c0-.05.1.09.09.15-.34,1.41-.49,3.08.69,3.81,0,0,0,.1,0,.08C207.64,148.11,207.86,145.89,208.4,144.61Z" style="fill:#263238"></path><path d="M210,143.4c2.31.3,1.54,4.9-.6,4.63S208,143.15,210,143.4Z" style="fill:#263238"></path><g style="opacity:0.2"><path d="M200.64,149c-.79,3.32-4.29,5.25-7.47,5.64,3-1.08,6-2.67,7.47-5.64Z"></path><path d="M205.63,151.29c.1,2.27.38,4.52,1.77,6.36-2-1.37-2.39-4.18-1.77-6.36Z"></path></g><path d="M179,142.69c3.11,1.26,6.45-3.11,7.49-5s1.86-10.82,3.75-13.61a6.72,6.72,0,0,1,7.9-2.72c2.55,1.09,5.58,4.94,7.55,5s2.9-4.08,4.26-3.92c3,.36,4.35,8.33,4.53,11.64,0,0,3.1-14.26-12-17.52-13.8-3-19.35,5-21,9C178.19,133.3,179,142.69,179,142.69Z" style="fill:#a6a6a6"></path><path d="M194.93,150.64a6.71,6.71,0,1,1,8.5-6.32h0a6.71,6.71,0,0,1-6.85,6.56A6.92,6.92,0,0,1,194.93,150.64Zm3.35-12.06a5.55,5.55,0,0,0-1.43-.21,5.81,5.81,0,1,0,1.43.21Z" style="fill:#37474f"></path><path d="M210.15,152.92c-2.47-.69-4-3.84-3.47-7.3a8,8,0,0,1,2.12-4.41,4.17,4.17,0,0,1,7.07,1.1,8,8,0,0,1,.67,4.85c-.57,3.65-3.24,6.28-6,5.86Zm2.69-12.2-.34-.07a3.57,3.57,0,0,0-3.07,1.19,7.18,7.18,0,0,0-1.87,3.92c-.49,3.16.92,6,3.16,6.37s4.44-1.95,4.94-5.11a7.18,7.18,0,0,0-.59-4.31A3.71,3.71,0,0,0,212.84,140.72Z" style="fill:#37474f"></path><path d="M203.09,145.05l-.46-.76c1.13-.69,3.63-1.46,5,.52l-.74.5C205.66,143.53,203.19,145,203.09,145.05Z" style="fill:#37474f"></path><path d="M173.3,142.16l-.72-.53c.24-.33,2.47-3.29,4.49-3.31s13.6,3,14.1,3.08l-.22.87c-3.36-.85-12.41-3.06-13.87-3.05S173.9,141.35,173.3,142.16Z" style="fill:#37474f"></path><path d="M183.42,141.8s-2.91-7.88-6.36-7-2.48,11.43.72,13.68a3.72,3.72,0,0,0,5.33-.67Z" style="fill:#eb9481"></path><path d="M177.41,137.81a0,0,0,0,0,0,.09c2.22,1.66,2.92,4.31,3.21,6.94a2.05,2.05,0,0,0-2.83-1.33c-.08,0,0,.15,0,.15a2.29,2.29,0,0,1,2.24,1.42,10.45,10.45,0,0,1,.65,2.28c.06.25.49.24.47,0v-.07C182,144.1,180.73,139,177.41,137.81Z" style="fill:#263238"></path><g style="opacity:0.2"><path d="M204.27,134.22a16.13,16.13,0,0,0,2.29.4c.79,0,1.57-.06,2.36,0a12.56,12.56,0,0,1,4.22,1.36c.12.05.09.13,0,.08a11.07,11.07,0,0,0-4.52-1.08,14.07,14.07,0,0,1-3.83-.3c-2.87-.72-5.77-1.06-8.59,0,0,0,0,0,0,0A13.93,13.93,0,0,1,204.27,134.22Z"></path><path d="M204.42,132.15a17.72,17.72,0,0,0,2.18.37c.74,0,1.49-.05,2.23,0a12,12,0,0,1,4,1.28c.11.05.09.13,0,.08a10.47,10.47,0,0,0-4.29-1,13,13,0,0,1-3.63-.29c-2.72-.68-5.47-1-8.14,0,0,0,0,0,0,0A13.14,13.14,0,0,1,204.42,132.15Z"></path></g><path d="M196.14,169.5l-5.35,11.44L176,165.76l-4.5,4.57s14.1,23.82,14.23,22.77l5.43-9.84,7.06,7.2,0-17.5Z" style="fill:#ebebeb"></path><path d="M198.8,181.81c-.1-2.89-.11-5.8-.34-8.68,0-.1-.18-.15-.21,0-.71,2.76-.29,13.81-.4,16.45l0,0c-.29-.32-6.55-6.35-6.62-6.26-1.16,1.55-5.14,8.72-5.42,9.37-2.23-3.78-11.72-18.72-14.39-22.31-.08-.1-.25,0-.19.09,2,4,14.2,23.69,14.39,23.64a110.53,110.53,0,0,0,5.68-10.4c1,1.3,7.34,8.08,7.38,7.66A86.05,86.05,0,0,0,198.8,181.81Z" style="fill:#263238"></path><path d="M227.89,199.32s16.51-7.64,16.5-17.84-21.46-16.74-21.48-24.72,9.33-12.68,9.33-12.68-14.75,5.06-14.74,15.15,14.16,16.9,15.52,23.32C234.91,191.46,227.89,199.32,227.89,199.32Z" style="fill:#ebebeb;opacity:0.6000000000000001"></path><path d="M228.7,199.32s-16.53-6-16.54-14,21.41-13.23,21.4-19.5-9.36-9.94-9.36-9.94S239,159.84,239,167.77s-16.21,13.41-17.36,19.86S228.7,199.32,228.7,199.32Z" style="fill:#ebebeb;opacity:0.6000000000000001"></path><rect x="220.24" y="224.98" width="15.72" height="2.45" transform="translate(-0.35 0.35) rotate(-0.09)" style="fill:#FFC727"></rect><rect x="220.24" y="224.98" width="15.72" height="2.45" transform="translate(-0.35 0.35) rotate(-0.09)" style="fill:#fff;opacity:0.7000000000000001"></rect><rect x="220.24" y="224.98" width="15.72" height="1.62" transform="translate(-0.35 0.35) rotate(-0.09)" style="opacity:0.1"></rect><path d="M201.57,218.43A8.67,8.67,0,0,0,212,221.74a11.07,11.07,0,0,0,2.22-1.17l-2-3a7.16,7.16,0,0,1-1.18.67,5.21,5.21,0,0,1-6.58-1.92c-2.16-3-2.94-9.94-.76-12.6.14-.2.77-.51,3.31,0,.46.11,1,.23,1.59.39a6.72,6.72,0,0,0,1.44.31l.06-1.78.17-1.77c-.16,0-.42-.11-.75-.2A23.88,23.88,0,0,0,206,200c-1.87-.19-3.82,0-5,1.51C197.42,205.85,198.87,214.64,201.57,218.43Z" style="fill:#FFC727"></path><path d="M201.57,218.43A8.67,8.67,0,0,0,212,221.74a11.07,11.07,0,0,0,2.22-1.17l-2-3a7.16,7.16,0,0,1-1.18.67,5.21,5.21,0,0,1-6.58-1.92c-2.16-3-2.94-9.94-.76-12.6.14-.2.77-.51,3.31,0,.46.11,1,.23,1.59.39a6.72,6.72,0,0,0,1.44.31l.06-1.78.17-1.77c-.16,0-.42-.11-.75-.2A23.88,23.88,0,0,0,206,200c-1.87-.19-3.82,0-5,1.51C197.42,205.85,198.87,214.64,201.57,218.43Z" style="fill:#fff;opacity:0.7000000000000001"></path><path d="M212.24,217.61a7.16,7.16,0,0,1-1.18.67l1,3.46a11.07,11.07,0,0,0,2.22-1.17Z" style="opacity:0.1"></path><path d="M206,200l1.06,3.79c.46.11,1,.23,1.59.39a6.72,6.72,0,0,0,1.44.31l.06-1.78.17-1.77c-.16,0-.42-.11-.75-.2A23.88,23.88,0,0,0,206,200Z" style="opacity:0.1"></path><path d="M249,195.29s-1.87,16-5.11,22.78-7.79,7.5-10.62,7.51H223c-2.82,0-7.37-.74-10.64-7.47s-5.17-22.76-5.17-22.76Z" style="fill:#FFC727"></path><path d="M249,195.29s-1.87,16-5.11,22.78-7.79,7.5-10.62,7.51H223c-2.82,0-7.37-.74-10.64-7.47s-5.17-22.76-5.17-22.76Z" style="fill:#fff;opacity:0.7000000000000001"></path><g style="opacity:0.1"><path d="M246.75,208.6c-.32,1.48-.67,2.94-1.06,4.31l-35.21.06c-.39-1.38-.75-2.84-1.08-4.31Z"></path><path d="M245.21,214.54c-.25.77-.49,1.49-.76,2.16l-32.72.05c-.27-.66-.52-1.39-.76-2.15Z"></path><path d="M247.56,204.55c-.13.7-.27,1.42-.42,2.15l-38.13.06c-.16-.73-.29-1.45-.42-2.15Z"></path></g><path d="M121.11,260.51c8.36,4.07,23-1.08,58-12.47,4.85-1.57,1.68-39.42-3.59-38-6.63,1.78-32,10.14-33.76,11C126.82,228.16,115.44,257.75,121.11,260.51Z" style="fill:#eb9481"></path><path d="M218.9,210c.11,4.42-10.79,3.77-10.79,3.77a8.1,8.1,0,0,1,3.4,4.37c.89,3.24-3.8,6-3.8,6a10.08,10.08,0,0,1,2.86,5.19c.53,3.18-3.79,6.69-3.79,6.69a9.14,9.14,0,0,1-.36,6.13c-4,8.52-28.33,9.11-35.31,7.81l-10-34.61s20.12-13.6,30-14.2C196.62,200.8,218.73,203.21,218.9,210Z" style="fill:#eb9481"></path><path d="M208,213.6c-5.8-1.56-12-1.73-17.91-1.83a.1.1,0,0,0,0,.2c5.91.45,12,1.64,17.87,1.91A.14.14,0,0,0,208,213.6Z" style="fill:#263238"></path><path d="M207.62,224a15.54,15.54,0,0,0-4.09-.15c-1.45,0-2.9.12-4.35.22-2.9.19-5.79.45-8.68.8-.12,0-.13.21,0,.2,2.89-.19,5.78-.33,8.68-.39,1.45,0,2.9-.06,4.34-.07a18.71,18.71,0,0,0,4.1-.22A.2.2,0,0,0,207.62,224Z" style="fill:#263238"></path><path d="M206.66,236a10.9,10.9,0,0,0-3.69.07l-4,.32c-2.64.2-5.28.4-7.92.51-.14,0-.14.21,0,.21,2.69-.1,5.38-.16,8.07-.28l4-.2a10.22,10.22,0,0,0,3.57-.5S206.72,236,206.66,236Z" style="fill:#263238"></path><path d="M168.66,208.22l-9.44,53.21s-34,4.66-40.69-1c-4.74-4.05,6.31-32.52,22.94-40.38Z" style="fill:#FFC727"></path><path d="M125.17,236.27c1.29-3.39,6.76-11.57,16.3-16.26.09,0,.17.08.09.13-6.77,4.18-14.74,13-16.26,16.2C125.26,236.43,125.14,236.36,125.17,236.27Z" style="fill:#263238"></path><path d="M151.07,254.93c.51-5.2,1.29-10.36,2.09-15.52s1.58-10.34,2.51-15.49c.52-2.9,1-5.82,1.65-8.71,0-.07.15-.06.14,0-.5,5.19-1.27,10.36-2,15.52s-1.58,10.34-2.44,15.5c-.49,2.91-1,5.82-1.66,8.71C151.3,255.1,151.06,255.08,151.07,254.93Z" style="fill:#263238"></path><path d="M168.46,207.81a46.65,46.65,0,0,0-5.71,2.13c-1.87.79-3.74,1.6-5.59,2.44-3.69,1.65-11.7,4.75-17.86,8.81-.06.05.5.15.57.1,2.83-2.08,26.61-11.72,28.42-12.73,0,.15-.51,3.55-.48,3.71s.18.16.23,0c.12-.29.68-3.81.78-4.1A.3.3,0,0,0,168.46,207.81Z" style="fill:#263238"></path><path d="M160.73,252.93c-.36,2.94-.78,5.87-1.21,8.8-4.51.69-9,1.17-13.59,1.52-6.68.44-13.46.69-20.11-.36-.73-.14-1.46-.31-2.19-.47,5.91.74,11.86.39,17.78.1s11.86-.85,17.76-1.43l-.29.28c.59-2.82,1.19-5.64,1.85-8.44Z" style="fill:#263238"></path><path d="M413.29,269.8c-9.55-8.55-49.27-24.06-51.29-25-1.92-.63-17.37-2.58-17.37-2.58-.45.09-41.05-18.21-41.05-18.21l-13.47,47.37L339,286s41.53,14.49,53.76,14.41C400.73,300.33,418.61,274.57,413.29,269.8Z" style="fill:#eb9481"></path><path d="M392.76,300.39C380.53,300.47,339,286,339,286l-10.61-3.17,9.79-43.36c3.75,1.65,6.28,2.74,6.44,2.74,0,0,15.46,1.95,17.37,2.58,2,1,41.75,16.48,51.3,25C418.61,274.57,400.73,300.33,392.76,300.39Z" style="fill:#ebebeb"></path><path d="M392.76,300.39C380.53,300.47,339,286,339,286l-3.62-1.08c1.19-3.35,4.26-12.11,5.58-16.68,1.67-5.74,3.66-26,3.66-26s15.46,1.95,17.37,2.58c2,1,41.75,16.48,51.3,25C418.61,274.57,400.73,300.33,392.76,300.39Z" style="fill:#FFC727"></path><path d="M388.88,297.12c-1.42-7.28,0-14.86,2.69-19.4,2.55-4.35,6.48-8.37,11.36-9,.14,0,.2.32.06.37-8.86,3.28-15.11,15.58-13.82,27.93C389.2,297.32,388.93,297.37,388.88,297.12Z" style="fill:#263238"></path><path d="M355.28,280.9c-.51-6.25,1.21-13.66,6.07-17.9.18-.16.42.11.33.3A86.65,86.65,0,0,0,356.06,281,.4.4,0,0,1,355.28,280.9Z" style="fill:#263238"></path><path d="M359.73,283.05c-.51-6.26,1.21-13.67,6.07-17.91.19-.16.42.11.33.3a87.28,87.28,0,0,0-5.62,17.66A.4.4,0,0,1,359.73,283.05Z" style="fill:#263238"></path><path d="M364.18,285.19c-.51-6.26,1.21-13.67,6.07-17.91.19-.16.42.11.33.3A87.28,87.28,0,0,0,365,285.24.4.4,0,0,1,364.18,285.19Z" style="fill:#263238"></path><path d="M368.63,287.33c-.51-6.26,1.21-13.67,6.07-17.91.19-.16.42.11.33.3a87.28,87.28,0,0,0-5.62,17.66A.4.4,0,0,1,368.63,287.33Z" style="fill:#263238"></path><path d="M346.38,284c4.56-3.13,7.6-8.13,10.94-12.41a.77.77,0,0,0-.45-1.16.16.16,0,0,0-.16-.21A33,33,0,0,0,340.36,275c-2.84,1.8-5.64,5.65-3.19,9C339.48,287.07,343.72,285.78,346.38,284Zm-5.21,0c-6.78-1-1.19-6.87,1-8.11a35.19,35.19,0,0,1,4.35-2,98.55,98.55,0,0,1,9.49-3c-1.77,2-3.35,4.14-5.05,6.21C348.9,279.46,344.91,284.5,341.17,284Z" style="fill:#263238"></path><path d="M354.18,247.14c-4.12.25-5.27,4.87-4.82,8.21a32.87,32.87,0,0,0,6.84,15.59.16.16,0,0,0,.27,0,.76.76,0,0,0,1.17-.4c1.14-5.32,3-10.86,2.48-16.36C359.81,251,358.08,246.89,354.18,247.14Zm3.53,15c-.49,2.63-1.11,5.21-1.51,7.86a98.31,98.31,0,0,1-3.8-9.2,37.14,37.14,0,0,1-1.23-4.66c-.43-2.44.47-10.48,5.6-5.94C359.6,252.7,358.31,259,357.71,262.13Z" style="fill:#263238"></path><path d="M361.24,245.27c12.15,5.26,25.2,11.15,37.16,16.81,4.34,2.25,8.67,4.42,12.8,7.05a4.88,4.88,0,0,1,1.41,1.22,4.29,4.29,0,0,1,.34,1.4c.07,4.09-1.86,7.68-3.65,11.19-3.63,6.66-8.94,13.41-16.12,16.37a10.82,10.82,0,0,0,2.55-1.37,40.61,40.61,0,0,0,12.9-15.36c1.63-3.51,3.86-7.46,3.31-11.39-.15-.71-.69-.85-1.25-1.29-8.59-5.26-19.33-10.12-28.48-14.48-5.23-2.48-15.77-7.59-21-10.15Z" style="fill:#263238"></path><path d="M140.6,273.28s0,32.71,11.64,42.85c9.79,8.51,33.29,17.1,57,6.65C229,314,254,271,259.35,266.57c1.66-1.38,32.66,13.26,65.38,22.87l11.5-58.65c-5.16-1-79.55-27.83-94.66-25.78-23.73,3.23-58.28,58.93-58.28,58.93Z" style="fill:#263238"></path><path d="M170.68,268.34c0-.17-.28-.12-.28,0a19.45,19.45,0,0,1-4.4,12.37c-3.24,3.83-8,6-12.35,8.21-.42.22-.07.53.36.4a36.55,36.55,0,0,0,7.62-3,18.76,18.76,0,0,0,5.75-4.89A17.08,17.08,0,0,0,170.68,268.34Z" style="fill:#37474f"></path><path d="M312.85,283.12c2.43-10.4,1.87-7.38,4.19-17.8,1.13-5.11,6.89-30.74,7.16-35.67a.1.1,0,0,0-.2,0c-1.77,4.61-7,30.36-8,35.48-2.13,10.47-1.41,7.49-3.43,18A.15.15,0,1,0,312.85,283.12Z" style="fill:#37474f"></path><path d="M183.76,263.76c-2.91,4.07-5.27,8.31-8.26,12.32,1.74-4.63,4.35-9.2,8.26-12.32Z" style="fill:#37474f"></path><path d="M145.35,275.61c.66,4.72,1.43,9.41,2.34,14.08a92.13,92.13,0,0,0,3.55,13.77,14.58,14.58,0,0,0,3.89,5.76c9.69,8.8,27.18,13.12,39.73,9.08,17.24-6.58,33-30.8,43.29-45.86,2.63-4,5.18-8,7.83-11.94.67-1,1.35-2,2.08-2.93.54-.7,1.37-1.82,2.45-1.6a38.78,38.78,0,0,1,7.82,2.27c8.92,3.35,17.66,7.11,26.49,10.67s17.6,7.28,26.8,9.75c-9.24-2.3-18.12-5.86-27-9.26-11.09-4.16-21.92-9.33-33.33-12.45a2.84,2.84,0,0,0-1.44,0,6.51,6.51,0,0,0-1.09,1.2c-3.49,4.79-6.53,9.91-9.83,14.85-10.33,15.32-26.16,39.5-43.79,46.17-12.82,4.13-30.61-.43-40.42-9.49-3.7-3.28-4.84-8.28-5.9-12.89-1.55-7-2.59-14.05-3.47-21.14Z" style="fill:#37474f"></path><path d="M326.16,282.14l-1.32,7.33,0,.11-.12,0c-11.26-3.13-22.36-6.86-33.28-11-8.77-3.25-21.8-9-30.69-11.44a3.58,3.58,0,0,0-1.08-.1c0-.06-.09.07-.09.07a57.34,57.34,0,0,0-5.61,7.24c-11.72,16.53-23.4,34.17-40.21,46,14.1-10.52,24.35-25.12,34.45-39.31,2.46-3.44,6.29-9.29,8.86-12.55a17.82,17.82,0,0,1,1.89-2.12.84.84,0,0,1,.36-.22,3.28,3.28,0,0,1,1.62.05,51.24,51.24,0,0,1,6.34,2c5.58,2,18.77,7.41,24.47,9.63,10.6,4.39,22.53,8.13,32.89,11.69l1.54-7.28Z" style="fill:#37474f"></path></g><g id="freepik--Plant--inject-60"><path d="M94.24,356.52c-6.6-17.11-19.88-26.74-36-23.42S37.73,358.2,49,364.76,73.47,356.1,80,353.29,94.24,356.52,94.24,356.52Z" style="fill:#FFC727"></path><path d="M98.26,400.92c.13-2,.22-4,.32-6,.19-4,.4-7.93.58-11.9.35-7.26.17-14.43-2.26-21.35A32.68,32.68,0,0,0,85.46,346,26.52,26.52,0,0,0,79,342.58a15.58,15.58,0,0,0-7.42-4.94,32,32,0,0,0-11.06-1.22c-.14,0-.15.22,0,.21A26.85,26.85,0,0,1,71,338.27a22.46,22.46,0,0,1,4.09,2A20.08,20.08,0,0,1,77.37,342a22.65,22.65,0,0,0-9.64-.72,20.49,20.49,0,0,0-3.44.82,9.34,9.34,0,0,0-2.6-.45,15.41,15.41,0,0,0-3.46.2,25.59,25.59,0,0,0-6.73,2.28c-.12,0,0,.24.1.18a24.24,24.24,0,0,1,6.53-1.84,20.12,20.12,0,0,1,3.29-.2c.61,0,1.22.09,1.82.16a21,21,0,0,0-11.06,9.3c-.07.11.11.23.17.11,2.82-5.14,8.17-8.36,13.88-9.31.35-.06.71-.07,1.07-.11A12.74,12.74,0,0,0,67,344c-.18.79-.38,1.58-.61,2.35a41.26,41.26,0,0,1-1.69,4.71,37.46,37.46,0,0,1-2.31,4.5,21.78,21.78,0,0,1-3,4.27c-.11.11.06.26.15.14,1.08-1.41,2.29-2.68,3.29-4.15a33.65,33.65,0,0,0,2.53-4.4,32.11,32.11,0,0,0,1.82-4.81c.25-.87.46-1.75.64-2.64a5.94,5.94,0,0,0,.24-1.62,22,22,0,0,1,5.61.36c-1,3.86-2.13,7.88-4.62,11.1-.08.11.1.23.18.12a46.07,46.07,0,0,0,3.18-5.38,21,21,0,0,0,1.85-5.72,26,26,0,0,1,9,3.89,30.65,30.65,0,0,1,11.18,14.53c2.45,6.33,3.08,13,2.93,19.71-.19,8.44-.8,16.9-.67,25.35,0,.55.86.81,1,.2A30.18,30.18,0,0,0,98.26,400.92Z" style="fill:#263238"></path><path d="M84.43,344.6a9.32,9.32,0,0,0-1.67-1.83,25.5,25.5,0,0,0-1.9-1.71,15.13,15.13,0,0,0-4.36-2.49.1.1,0,1,0-.07.19,12.31,12.31,0,0,1,4.3,2.59c.62.54,1.22,1.13,1.8,1.72a11.06,11.06,0,0,0,1.7,1.72A.14.14,0,0,0,84.43,344.6Z" style="fill:#263238"></path><path d="M58.41,348.39a51.61,51.61,0,0,0-4.08,4.54,29.27,29.27,0,0,0-3.18,5.18c0,.05.06.09.09.05a64.58,64.58,0,0,1,7.31-9.61C58.65,348.45,58.51,348.3,58.41,348.39Z" style="fill:#263238"></path><path d="M75.75,348.23a11.51,11.51,0,0,1-1.16,2.89,19,19,0,0,1-1.74,2.51c0,.05,0,.12.08.07a10.74,10.74,0,0,0,3-5.4C76,348.17,75.78,348.1,75.75,348.23Z" style="fill:#263238"></path><path d="M93.14,356.8s10.26-15.09,32.5-11.69c21.15,3.22,33.61,40.61,13,46.75s-19.62-29.4-27.72-34.8C104.93,353.09,96.93,354.64,93.14,356.8Z" style="fill:#FFC727"></path><path d="M144.1,364.64a43.69,43.69,0,0,0-4.76-3.11,19.92,19.92,0,0,0-5-2,27.79,27.79,0,0,0-10.13-8.21c.22,0,.43-.07.65-.09a33.7,33.7,0,0,1,3.48-.23,19.39,19.39,0,0,1,6.87,1.17.11.11,0,0,0,.07-.2,31.2,31.2,0,0,0-6.89-1.52,18.72,18.72,0,0,0-3.43,0c-.62.05-1.23.14-1.83.24l-.35.06a29.08,29.08,0,0,0-6.48-1.84l.6-.22a31.71,31.71,0,0,1,3.2-.77,25.23,25.23,0,0,1,6.55-.4c.13,0,.15-.2,0-.2a40.8,40.8,0,0,0-6.63.23,27.23,27.23,0,0,0-5.45,1.13,29.9,29.9,0,0,0-4-.16c-7.65.25-15.74,3.73-20,10.35s-4.51,15.06-4.77,22.69a169.6,169.6,0,0,0,1.56,31.85c.1.62,1,.44.94-.16-.39-9-.75-18-.57-27,.09-4.18.22-8.38.59-12.54a36.7,36.7,0,0,1,2.25-10.45,18.71,18.71,0,0,1,6.78-8.49,25,25,0,0,1,10.21-4,28.5,28.5,0,0,1,9.88.18,6.33,6.33,0,0,0,.09,1.94,10.75,10.75,0,0,0,.66,2.36,13.31,13.31,0,0,0,1.07,2.05c.46.72,1,1.35,1.53,2,.08.11.25,0,.16-.13a9.94,9.94,0,0,1-2-4.18,16.9,16.9,0,0,1-.43-2.21c-.07-.56-.07-1.13-.13-1.69a29.06,29.06,0,0,1,9.92,4.32c.57.38,1.11.79,1.65,1.22a10.52,10.52,0,0,0-1.68,2.42,21.58,21.58,0,0,0-1.69,3.61,29.63,29.63,0,0,0-1.44,7.76c0,.13.2.15.2,0a22.4,22.4,0,0,1,2-7.4,30.9,30.9,0,0,1,1.69-3.35c.33-.55.68-1.1,1-1.63.19-.29.4-.58.58-.89a30.14,30.14,0,0,1,6.86,8.26l0,0a14.65,14.65,0,0,0-2.29,3.87,34.87,34.87,0,0,0-1.72,4.53,74.51,74.51,0,0,0-1.93,9.11.11.11,0,0,0,.21,0,37.75,37.75,0,0,1,2.43-9c.55-1.42,1.14-2.82,1.77-4.21a36.88,36.88,0,0,0,1.76-4,27.84,27.84,0,0,1,3.26,9.94c0,.13.23.09.21,0a35.47,35.47,0,0,0-6.08-15.17c1.38.47,2.76.92,4.1,1.51a22.29,22.29,0,0,1,4.79,2.85C144.08,364.9,144.21,364.72,144.1,364.64Z" style="fill:#263238"></path><path d="M128.13,366.66c-.5,2.21-1.16,4.37-1.59,6.59a24.92,24.92,0,0,0-.48,6.5.05.05,0,0,0,.1,0,62.56,62.56,0,0,1,2.17-13A.1.1,0,1,0,128.13,366.66Z" style="fill:#263238"></path><path d="M141.57,360.26a11.73,11.73,0,0,0-3-1.85,20.57,20.57,0,0,0-3.44-.93c-.13,0-.16.19,0,.2a12.93,12.93,0,0,1,3.32,1.09,24,24,0,0,1,3.11,1.6A.07.07,0,0,0,141.57,360.26Z" style="fill:#263238"></path><path d="M105.17,340s2.1-25.65,21.17-34c15.93-6.94,25,11,13.78,21.91C131,336.83,116.41,332.83,105.17,340Z" style="fill:#FFC727"></path><path d="M136.6,311a80.12,80.12,0,0,0-8.48,4,62.68,62.68,0,0,0-6.59,4.37c.32-.65.59-1.33.91-2,.5-1,1-2,1.62-2.9a27.73,27.73,0,0,1,4.2-5.32c.1-.09,0-.24-.15-.14a42.48,42.48,0,0,0-4.42,5.14,30.05,30.05,0,0,0-1.81,2.91,11.37,11.37,0,0,0-1.28,3l-.21.15a62.91,62.91,0,0,0-9.11,8.91c0-.25.1-.5.17-.73.36-1.25.74-2.49,1.16-3.73a31.7,31.7,0,0,1,3.44-7.48c.07-.11-.11-.22-.18-.1a58,58,0,0,0-4,7.3,26.56,26.56,0,0,0-1.32,3.79,15.33,15.33,0,0,0-.62,2.57c-.83,1.06-1.65,2.12-2.42,3.21-8.19,11.66-12.3,25.76-13.28,39.86A118.44,118.44,0,0,0,94,386.49a79.24,79.24,0,0,0,1.11,12.68c.06.26.47.18.46-.08-.09-3.7-.47-7.39-.55-11.1s.06-7.44.36-11.14A103.83,103.83,0,0,1,99.57,355a78,78,0,0,1,9.7-20.52c.8-.16,1.6-.38,2.39-.58,1-.25,1.9-.49,2.85-.76a28.73,28.73,0,0,0,5.32-1.95c.12-.06,0-.24-.11-.18a17,17,0,0,1-5.39,1.86c-1.5.3-3,.5-4.54.84a69.85,69.85,0,0,1,4.43-5.83,33.29,33.29,0,0,0,10.85-.81,43,43,0,0,0,5.55-1.73c1.91-.73,3.72-1.68,5.61-2.47.14-.06,0-.27-.09-.19-3.23,2-7.3,3-11,3.6a68.1,68.1,0,0,1-10.28.85c1.35-1.55,2.75-3.07,4.24-4.49,5-4.77,11-9.15,17.56-11.44C136.79,311.19,136.72,311,136.6,311Z" style="fill:#263238"></path><path d="M121.08,311.11a29.52,29.52,0,0,0-2.34,3.42,18.57,18.57,0,0,0-1.68,4,0,0,0,0,0,.08,0c.63-1.26,1.17-2.56,1.81-3.82a19,19,0,0,1,2.28-3.46C121.32,311.15,121.16,311,121.08,311.11Z" style="fill:#263238"></path><path d="M138.81,319.65a19.69,19.69,0,0,1-3.91,1.63,36.5,36.5,0,0,1-4,1.07c-.06,0,0,.12,0,.11a18.84,18.84,0,0,0,4.12-.9,34.18,34.18,0,0,0,3.86-1.73C139,319.77,138.93,319.58,138.81,319.65Z" style="fill:#263238"></path><path d="M90.45,327.57c-.12,1.11-2.89-9.31-19-18.57-14.65-8.4-32.12-30.25-17.77-44.06C65.26,253.8,95.79,278.09,90.45,327.57Z" style="fill:#FFC727"></path><path d="M101.54,387.31A286.07,286.07,0,0,0,99,354.89a146,146,0,0,0-6.82-29c-1.2-3.39-2.57-6.72-4-10a23.37,23.37,0,0,0-.07-3.84c-.08-1.64-.23-3.28-.38-4.91s-.32-3.28-.51-4.91-.54-3.26-.61-4.89a.1.1,0,1,0-.2,0,34.77,34.77,0,0,1,.57,5.19c.13,1.59.22,3.17.27,4.75s0,3.18,0,4.77c0,.57,0,1.18,0,1.79q-2.28-4.81-4.9-9.43c1.09-6.69-.33-13.68-1.7-20.21,0-.14-.22-.08-.2.06a57.07,57.07,0,0,1,1.07,10.36c.06,2.74-.07,5.49-.08,8.23-.39-.65-.77-1.31-1.17-2q-3.14-5.13-6.7-10a15.83,15.83,0,0,0-.15-4.76,37,37,0,0,0-1.17-5.21c-.52-1.71-1.11-3.39-1.79-5s-1.63-3.3-2.3-5c-.06-.14-.27,0-.19.09a25.21,25.21,0,0,1,2,5.06,45.58,45.58,0,0,1,1.32,5c.34,1.7.62,3.4.86,5.12.15,1.13.25,2.31.45,3.45a123,123,0,0,0-11.29-13.13c-.1-.1-.23,0-.15.15a148,148,0,0,1,16.4,22.3c.18.3.34.6.52.9-.89-.56-1.91-1-2.75-1.47q-2.34-1.31-4.7-2.58c-1.53-.82-3-1.66-4.57-2.5-.78-.43-1.55-.88-2.35-1.29a19.18,19.18,0,0,1-2.73-1.52c-.12-.09-.25.1-.12.17,1.55.85,2.92,2.12,4.42,3.08s3,1.89,4.61,2.76c2.86,1.6,6,2.75,8.8,4.4,2,3.43,3.76,6.95,5.42,10.53-1.71-1.1-3.46-2.14-5.23-3.14-1.15-.64-2.29-1.27-3.45-1.88a17,17,0,0,1-3.25-2,.1.1,0,1,0-.14.15,30.22,30.22,0,0,0,6.19,4.31c2.07,1.21,4.17,2.38,6.32,3.43q2.58,5.67,4.67,11.54c6.78,19.22,9.28,39.62,10.47,59.88.35,6,.54,12.08.61,18.13S100,413.93,100,420c0,.18.29.22.32,0,.72-5.36.85-10.81,1.09-16.2S101.67,392.81,101.54,387.31Z" style="fill:#263238"></path><path d="M72.25,300.31a76.35,76.35,0,0,1-8.57-4.43,89.22,89.22,0,0,1-8.13-5.16s-.1,0-.06.07a69.23,69.23,0,0,0,7.81,5.47,79.84,79.84,0,0,0,8.85,4.24C72.27,300.55,72.37,300.37,72.25,300.31Z" style="fill:#263238"></path><path d="M76.92,278.59c-.24-.94-.53-1.86-.85-2.77a.08.08,0,0,0,0-.11c-.2-.52-.42-1-.63-1.55a2,2,0,0,0-.07-.19l-.12-.29s-.07,0-.06,0c.06.18.1.36.16.54s0,.19.09.29a77.16,77.16,0,0,1,2.39,11c0,.12.19.12.19,0A36.47,36.47,0,0,0,76.92,278.59Z" style="fill:#263238"></path><polygon points="76.22 400.23 77.18 413.87 80.13 455.46 111.74 455.46 114.69 413.87 115.65 400.23 76.22 400.23" style="fill:#455a64"></polygon><polygon points="76.22 400.23 76.95 410.63 114.69 413.87 115.65 400.23 76.22 400.23" style="fill:#263238"></polygon><rect x="73.12" y="397.67" width="45.64" height="10.17" transform="translate(191.87 805.51) rotate(180)" style="fill:#455a64"></rect></g></svg>
